<?xml version="1.0" encoding="UTF-8" standalone="no"?>
<!-- Created with Inkscape (http://www.inkscape.org/) -->

<svg
   version="1.1"
   id="svg1"
   width="258.66666"
   height="258.66666"
   viewBox="0 0 258.66666 258.66666"
   sodipodi:docname="ark-seeklogo.svg"
   inkscape:version="1.3.2 (1:1.3.2+202311252150+091e20ef0f)"
   xmlns:inkscape="http://www.inkscape.org/namespaces/inkscape"
   xmlns:sodipodi="http://sodipodi.sourceforge.net/DTD/sodipodi-0.dtd"
   xmlns="http://www.w3.org/2000/svg"
   xmlns:svg="http://www.w3.org/2000/svg">
  <defs
     id="defs1" />
  <sodipodi:namedview
     id="namedview1"
     pagecolor="#ffffff"
     bordercolor="#000000"
     borderopacity="0.25"
     inkscape:showpageshadow="2"
     inkscape:pageopacity="0.0"
     inkscape:pagecheckerboard="0"
     inkscape:deskcolor="#d1d1d1"
     inkscape:zoom="2.4661938"
     inkscape:cx="326.21118"
     inkscape:cy="119.21204"
     inkscape:window-width="1920"
     inkscape:window-height="1016"
     inkscape:window-x="0"
     inkscape:window-y="0"
     inkscape:window-maximized="1"
     inkscape:current-layer="g1">
    <inkscape:page
       x="0"
       y="0"
       inkscape:label="1"
       id="page1"
       width="258.66666"
       height="258.66666"
       margin="0"
       bleed="0" />
  </sodipodi:namedview>
  <g
     id="g1"
     inkscape:groupmode="layer"
     inkscape:label="1">
    <path
       id="path3"
       style="fill:#5ac6eb;fill-opacity:1;fill-rule:evenodd;stroke:none;stroke-width:0.133333"
       d="M 68.840964,57.068596 35.372214,125.6643 h 19.130859 l 14.337891,33.54297 14.339844,-33.54297 h 19.089842 v 0.23242 l 0.11328,-0.23242 h 17.62695 v -19.91211 l 13.10157,19.91211 h -13.10157 v 20.06055 L 133.2101,125.6643 h 20.97071 l -16.9668,24.9375 c 7.00665,1.64 12.69708,9.00177 12.84375,18.00977 0.21466,13.18665 -9.72942,19.74804 -22.43555,19.74804 H 102.27065 V 125.89672 L 68.840964,194.41039 35.299948,125.6643 H 21.262839 v 78.46875 H 230.15542 V 125.6643 H 212.45815 L 187.54018,93.494378 210.57534,62.972893 H 190.66323 L 171.86831,89.390862 V 62.972893 h -17.17383 v 62.570317 h 17.05664 v 26.26562 L 190.35268,125.6643 H 171.86831 V 99.39867 l 18.60156,26.14454 h 21.87109 l -24.91797,32.16992 23.03321,30.52148 h -19.91016 l -18.79492,-26.41797 v 26.41797 h -17.17383 v -62.6914 h 0.0312 l -17.39453,-24.66797 c 7.00665,-1.63906 12.69708,-8.999959 12.84375,-18.007816 0.21466,-13.186919 -9.72942,-19.748046 -22.43555,-19.748046 H 102.2706 v 62.460932 z m 51.169916,19.960938 h 4.41797 c 4.47187,0 8.13281,2.451861 8.13281,6.972656 0,4.685995 -2.97599,7.240234 -8.03906,7.240234 h -4.51172 z M 68.840964,92.271721 83.116354,125.6643 H 54.567526 Z m 51.169916,67.962889 v 14.21485 h 4.41797 c 4.47187,0 8.13281,-2.45462 8.13281,-6.97461 0,-4.68666 -2.97599,-7.24024 -8.03906,-7.24024 z"
       sodipodi:nodetypes="cccccccccccccccccscccccccccccccccccccccccccccccccccsccccsssccccccccsssc" />
  </g>
</svg>
